<?xml version="1.0" encoding="UTF-8"?>
<svg id="Layer_2" data-name="Layer 2" xmlns="http://www.w3.org/2000/svg" viewBox="0 0 183.48 311.9">
  <defs>
    <style>
      .cls-1, .cls-2 {
        fill: #1b3359;
      }

      .cls-3 {
        letter-spacing: -.05em;
      }

      .cls-4 {
        letter-spacing: 0em;
      }

      .cls-2 {
        font-family: AeonikTRIAL-Bold, 'Aeonik TRIAL';
        font-size: 69.98px;
      }
    </style>
  </defs>
  <g id="Layer_1-2" data-name="Layer 1">
    <g>
      <g>
        <path class="cls-1" d="M97.08,156.41V24.89c21.5,1.88,33.28,19.99,36.49,28.81v29.8h10.6v-27.18c-8.78-35.8-38.58-43.19-52.38-42.4-33.43-.46-48.85,28.08-52.38,42.4v27.18h10.92v-29.8c10.88-24.36,29.08-29.36,36.81-28.81V156.41c-9.83-3.97-14.04-11.81-14.91-15.23V44.75c-5.29,3.45-7.96,13.81-8.63,18.55v33.45H24.76V53.7C35.33,11.05,73.84,.13,91.78,0c43.26,.26,62.7,35.91,67.02,53.7v43.06h-37.85V63.3c-1.35-11.13-7.19-17.01-9.94-18.55v96.43c-1.88,8.73-10.07,13.79-13.93,15.23Z"/>
        <path class="cls-1" d="M97.08,166v13.92c21.5-1.88,33.28-19.99,36.49-28.81v-29.8h10.6v27.18c-8.78,35.8-38.58,43.19-52.38,42.4-33.43,.46-48.85-28.08-52.38-42.4v-27.18h10.92v29.8c10.88,24.36,29.08,29.36,36.81,28.81v-13.92c-10.98-1.86-13.66-5.95-13.66-5.95-8.9-7.75-9.21-13.81-9.89-18.55-.67-4.75,0-33.45,0-33.45H24.76v43.06c10.57,42.65,49.09,53.57,67.02,53.7,43.26-.26,62.7-35.91,67.02-53.7v-43.06h-37.85v33.45c-1.35,11.13-9.94,18.55-9.94,18.55,0,0-10.07,7.39-13.93,5.95Z"/>
      </g>
      <text class="cls-2" transform="translate(0 297.48)"><tspan class="cls-3" x="0" y="0">O</tspan><tspan class="cls-4" x="49.76" y="0">T</tspan><tspan class="cls-3" x="92.09" y="0">T</tspan><tspan x="130.51" y="0">O</tspan></text>
    </g>
  </g>
</svg>