<?xml version="1.0" encoding="UTF-8"?>
<svg id="Layer_2" data-name="Layer 2" xmlns="http://www.w3.org/2000/svg" viewBox="0 0 291.48 122.29">
  <defs>
    <style>
      .cls-1 {
        letter-spacing: -.05em;
      }

      .cls-2 {
        font-family: AeonikTRIAL-Bold, 'Aeonik TRIAL';
        font-size: 69.98px;
      }

      .cls-2, .cls-3 {
        fill: #e9f3ff;
      }

      .cls-4 {
        letter-spacing: 0em;
      }
    </style>
  </defs>
  <g id="Layer_1-2" data-name="Layer 1">
    <g>
      <g>
        <path class="cls-3" d="M43.18,93.39V14.86c12.84,1.12,19.87,11.94,21.79,17.21v17.79h6.33v-16.23c-5.24-21.38-23.04-25.79-31.28-25.32-19.96-.27-29.17,16.77-31.28,25.32v16.23h6.52v-17.79c6.5-14.55,17.36-17.53,21.98-17.21V93.39c-5.87-2.37-8.38-7.05-8.9-9.09V26.72c-3.16,2.06-4.75,8.24-5.15,11.08v19.98H0v-25.71C6.31,6.6,29.31,.08,40.02,0c25.83,.16,37.44,21.44,40.02,32.07v25.71h-22.6v-19.98c-.81-6.65-4.29-10.16-5.94-11.08v57.58c-1.12,5.21-6.01,8.23-8.32,9.09Z"/>
        <path class="cls-3" d="M43.18,99.12v8.31c12.84-1.12,19.87-11.94,21.79-17.21v-17.79h6.33v16.23c-5.24,21.38-23.04,25.79-31.28,25.32-19.96,.27-29.17-16.77-31.28-25.32v-16.23h6.52v17.79c6.5,14.55,17.36,17.53,21.98,17.21v-8.31c-6.56-1.11-8.15-3.55-8.15-3.55-5.32-4.63-5.5-8.24-5.9-11.08-.4-2.84,0-19.98,0-19.98H0v25.71c6.31,25.47,29.31,31.99,40.02,32.07,25.83-.16,37.44-21.44,40.02-32.07v-25.71h-22.6v19.98c-.81,6.65-5.94,11.08-5.94,11.08,0,0-6.01,4.41-8.32,3.55Z"/>
      </g>
      <text class="cls-2" transform="translate(108 87.22)"><tspan class="cls-1" x="0" y="0">O</tspan><tspan class="cls-4" x="49.76" y="0">T</tspan><tspan class="cls-1" x="92.09" y="0">T</tspan><tspan x="130.51" y="0">O</tspan></text>
    </g>
  </g>
</svg>